<svg xmlns="http://www.w3.org/2000/svg" width="440" height="398"><path fill="#F6F8EF" d="M0 0h440v398H0z" id="svg-layer-0" style="pointer-events: all;"/><path fill="#313837" d="M61 121c3.709 1.355 6.797 3.037 10.07 5.238l2.936 1.965 3.119 2.11 3.25 2.183Q85.193 135.74 90 139l2.609 1.767c10.334 7.011 20.584 14.14 30.829 21.28 8.424 5.868 16.892 11.67 25.372 17.458 10.815 7.382 21.564 14.841 32.19 22.495 1.805-2.707 2.987-5.296 4.208-8.294 3.607-8.784 8.075-16.128 13.792-23.706l1.766-2.36L202 166l-2.687-.25c-3.754-.85-5.573-2.09-8.313-4.75v-2l3.918-.77 5.27-1.042 2.767-.546a316 316 0 0 0 15.17-3.392c9.62-2.221 17.979-2.046 26.875 2.75 2.41 2.591 3 3.4 3 7l1.758.191c5.508.864 8.736 2.245 12.156 6.723 1.848 3.55 2.068 7.135 2.086 11.086h-3v-2c-11.148-2.877-21.867.121-31.766 5.504-17.15 11.48-28.785 28.044-40.751 44.472A579 579 0 0 1 184 235c-5.036-1.597-8.754-4.627-12.875-7.812l-4.117-3.145-2.018-1.552c-1.927-1.444-3.897-2.8-5.888-4.155-4.73-3.562-5.599-7.786-6.696-13.344-1.919-9.3-1.919-9.3-5.969-12.242C143 191 143 191 141 191v2l2.813 1.813c4.226 3.323 4.56 7.766 5.449 12.835 1.957 8.884 5.34 12.254 12.55 17.54l2.409 1.826c4.17 3.142 8.402 6.14 12.779 8.986l3 2c-.525 4.557-2.315 7.193-5.062 10.813l-2.223 2.957L171 254c-2.5-2.5-3.037-4.648-4.125-8l-1.07-3.25C165 240 165 240 165 238l-1.754-.833c-2.203-1.145-4.154-2.413-6.18-3.847l-2.216-1.566-2.287-1.629-2.276-1.605a388 388 0 0 1-4.353-3.131c-1.574-1.13-3.199-2.19-4.836-3.225-3.11-3.208-3.385-6.629-4.223-10.914-1.394-5.735-2.456-9.964-7.437-13.562-1.517-.9-3.036-1.795-4.584-2.639-2.994-1.694-5.835-3.619-8.706-5.512a987 987 0 0 0-7.722-5.025c-5.55-3.59-11.092-7.19-16.614-10.824l-2.57-1.667c-14.512-9.59-23.697-20.91-27.492-38.146-.785-4.353-.914-8.46-.75-12.875" id="svg-layer-1" style="pointer-events: all;"/><path fill="#28618E" d="M381 121c1.067 14.937-4.333 29.695-14 41-5.919 5.533-12.73 9.874-19.537 14.214-6.68 4.26-13.292 8.617-19.887 13.008q-1.813 1.208-3.63 2.411-2.577 1.71-5.15 3.426l-3.02 2.01c-5.796 4.032-8.445 6.348-9.839 13.369-1.964 9.558-6.587 13.321-14.375 18.562-7.716 5.22-13.358 9.09-16.375 18.313l-.654 1.955A359 359 0 0 0 273 254c-3.038-2.955-5.816-5.887-8.312-9.312l-1.551-2.114L262 241c1.387-3.261 2.88-4.974 5.703-7.094l2.223-1.683 2.324-1.723 2.277-1.723c3.205-2.41 6.412-4.737 9.77-6.933 4.769-3.253 4.769-3.253 6.703-5.844.367-2.04.724-4.085.96-6.145.934-7.586 2.654-12.492 8.693-17.404 6.011-4.388 9.635-6.887 17.347-6.451 3-2 3-2 3.688-5.125L322 178c-2.72-.907-5.159-1.645-8-2-3 2-3 2-3.758 4.809-1.696 4.357-4.275 5.8-8.117 8.254-10.456 6.823-10.456 6.823-11.898 13.539l-.288 1.968c-1.146 7.489-3.295 11.847-9.439 16.368a183 183 0 0 1-5.622 3.814c-3.021 2.008-5.873 4.232-8.753 6.435A2701 2701 0 0 1 261 235c-3.065-1.321-4.692-2.53-6.543-5.3l-1.314-1.964-1.33-2.048-1.366-2.014c-2.32-3.518-4.024-6.381-4.447-10.674 8.783-6.241 17.595-12.434 26.5-18.5a1303 1303 0 0 0 20.29-14.117c4.77-3.38 9.573-6.708 14.397-10.008a712 712 0 0 0 14.438-10.125c8.64-6.216 17.463-12.166 26.27-18.143q4.989-3.387 9.972-6.779 6.571-4.472 13.145-8.941c.891-.607 1.783-1.213 2.702-1.837C378.95 121 378.95 121 381 121" id="svg-layer-2" style="pointer-events: all;"/><path fill="#313837" d="m240 188 1 2-.937 2.375c-3.192 10.887-.455 20.249 4.625 29.938 6.684 11.803 14.825 22.663 22.8 33.61q2.013 2.765 4.02 5.534c5.404 7.448 5.404 7.448 7.328 9.52C280 273 280 273 279.398 275.41c-5.74 10.63-13.336 19.675-21.398 28.59l-2.09 2.313c-9.002 9.44-20.821 18.604-32.91 23.687-15.162-.647-32.194-19.385-42-30-3.031-3.356-3.031-3.356-2.902-6.016 1.099-2.417 2.438-3.884 4.34-5.734l1.87-1.86C186 285 186 285 188 285c1.48 1.504 1.48 1.504 3.188 3.563 5.665 6.6 11.442 12.07 18.437 17.25l1.957 1.456c7.148 5.19 7.148 5.19 10.418 5.731 2.535-1.328 4.464-2.574 6.688-4.312l1.868-1.405c21.799-16.616 21.799-16.616 26.577-26.666-.218-4.296-3.033-6.638-5.82-9.742-13.628-15.95-25.263-34.49-28.938-55.437 2.087-11.481 9.695-19.48 17.625-27.438" id="svg-layer-3" style="pointer-events: all;"/><path fill="#27608C" d="M61 121c3.709 1.355 6.797 3.037 10.07 5.238l2.936 1.965 3.119 2.11 3.25 2.183Q85.193 135.74 90 139l2.609 1.767c10.325 7.005 20.571 14.124 30.803 21.265 4.692 3.272 9.395 6.526 14.131 9.734l2.633 1.785q2.439 1.65 4.887 3.289c3.653 2.472 6.96 4.862 9.937 8.16l-1 1 2 2h-2l.625 2.875L155 194l-2 2c-3.967-.283-6.797-2.841-10-5h-2v2l2.813 1.813c4.226 3.323 4.56 7.766 5.449 12.835 1.957 8.884 5.34 12.254 12.55 17.54l2.409 1.826c4.17 3.142 8.402 6.14 12.779 8.986l3 2c-.525 4.557-2.315 7.193-5.062 10.813l-2.223 2.957L171 254c-2.5-2.5-3.037-4.648-4.125-8l-1.07-3.25C165 240 165 240 165 238l-1.754-.833c-2.203-1.145-4.154-2.413-6.18-3.847l-2.216-1.566-2.287-1.629-2.276-1.605a388 388 0 0 1-4.353-3.131c-1.574-1.13-3.199-2.19-4.836-3.225-3.11-3.208-3.385-6.629-4.223-10.914-1.394-5.735-2.456-9.964-7.437-13.562-1.517-.9-3.036-1.795-4.584-2.639-2.994-1.694-5.835-3.619-8.706-5.512a987 987 0 0 0-7.722-5.025c-5.55-3.59-11.092-7.19-16.614-10.824l-2.57-1.667c-14.512-9.59-23.697-20.91-27.492-38.146-.785-4.353-.914-8.46-.75-12.875" id="svg-layer-4" style="pointer-events: all;"/><path fill="#28608F" d="M373 172c-.976 12.691-5.706 25.59-15.312 34.313-7.357 5.583-15.617 9.805-23.875 13.875l-2.824 1.406a782 782 0 0 1-15.391 7.422l-3.154 1.483q-3.01 1.41-6.03 2.797l-2.766 1.294-2.432 1.12c-2.499 1.455-4.26 3.174-6.216 5.29 5.499-.636 10.215-2.484 15.309-4.527l2.681-1.058a2873 2873 0 0 0 8.447-3.352q4.218-1.676 8.437-3.342 2.62-1.035 5.236-2.08c4.584-1.815 9.123-3.378 13.89-4.641-3.485 11.575-10.61 21.257-21.236 27.026-8.855 4.558-18.065 7.533-27.597 10.325-4.044 1.212-8.024 2.608-12.015 3.985C286 264 286 264 284 264l-1 3c-2.818-1.007-4.301-2.301-6.437-4.437-2.363-5.387-.516-9.23 1.437-14.563l.54-1.947c1.786-5.858 4.52-8.22 9.647-11.365l4.356-2.82 2.248-1.431a165 165 0 0 0 6.26-4.304c7.776-5.572 15.596-10.246 24.246-14.336 3.376-1.6 6.556-3.448 9.765-5.36 4.46-2.51 6.877-2.47 11.938-1.437 2.5-1.562 2.5-1.562 4-4-.25-3.25-.25-3.25-1-6h-9l-.57 3.246c-.972 3.37-1.424 3.75-4.485 5.977q-1.893.955-3.82 1.84l-2.018.996a320 320 0 0 1-4.107 1.984c-1.882.9-3.738 1.837-5.59 2.797C312.335 216 312.335 216 310 216c-.28-8.382-.28-8.382 2-12 2.138-1.485 2.138-1.485 4.828-2.89.507-.27.507-.27 3.072-1.629 1.106-.57 2.211-1.142 3.35-1.731l5.228-2.758q2.794-1.472 5.595-2.933c6.138-3.212 12.248-6.479 18.36-9.74q2.975-1.585 5.953-3.164l3.673-1.952 3.26-1.73C371.638 172 371.638 172 373 172" id="svg-layer-5" style="pointer-events: all;"/><path fill="#27608D" d="M69 172c5.266 2.048 10.263 4.536 15.313 7.063l2.97 1.485c6.453 3.251 12.802 6.636 19.065 10.238 3.233 1.86 6.478 3.664 9.793 5.374l2.057 1.066q1.916.986 3.845 1.949c4.025 2.077 7.063 4.33 9.957 7.825.707 2.457.707 2.457.813 4.813l.144 2.394L133 216c-3.534-.579-6.315-1.493-9.469-3.18l-2.48-1.316-2.551-1.379-2.55-1.355A669 669 0 0 1 109 205l-2.984-1.625c-2.82-1.924-3.677-4.296-5.016-7.375-1-1-1-1-4.562-1.062L93 195c-.756 2.72-1.138 4.502-.375 7.25C94 204 94 204 96.438 204.813 99 205 99 205 102 204c2.708 1.108 2.708 1.108 5.953 2.824l1.753.917c1.853.973 3.698 1.96 5.544 2.946q1.84.97 3.684 1.936c3.367 1.771 6.719 3.569 10.066 5.377l2.165 1.166c5.003 2.768 9.497 6.13 14.05 9.568 2.956 2.222 5.846 4.302 9.027 6.2 7.716 4.694 10.029 9.91 12.246 18.359.715 5.18-.537 7.37-3.488 11.52L161 267h-2l-2-3c-2.268-.98-2.268-.98-5.102-1.832l-3.151-.97-3.372-1.01q-3.43-1.07-6.86-2.145l-3.384-1.057c-17.748-5.589-30.84-12.535-40.377-29.158C94 226 94 226 94 223c7.505 2.153 14.849 4.652 22.188 7.313l3.313 1.195c7.3 2.65 14.531 5.426 21.706 8.398 2.272.89 4.413 1.587 6.793 2.094v-4l-2.546-.775c-3.739-1.326-7.196-3.008-10.712-4.823a594 594 0 0 0-17.61-8.586l-6.743-3.188a685 685 0 0 0-4.56-2.125c-16.001-7.402-27.614-16.174-34.204-33.19C70.128 180.86 69.353 176.676 69 172" id="svg-layer-6" style="pointer-events: all;"/><path fill="#BDA25F" d="M228.438 123.25a338 338 0 0 1 5.746 3.642c14.527 8.867 35.866 11.902 52.535 13.784C289 141 289 141 290 142c.316 4.772.357 9.546.405 14.327q.033 2.413.103 4.824c.067 2.32.094 4.638.113 6.958l.084 2.166c-.011 2.834-.144 5.057-2.008 7.278-3.583 3.028-7.592 5.23-11.697 7.447-1.435-2.87-1.112-5.335-1.098-8.54l.01-3.944.026-4.141q.008-2.082.013-4.164.018-5.105.049-10.211l-2.801-.374c-15.809-2.171-32.663-5.797-46.762-13.564-4.042-2.117-4.042-2.117-7.562-1.625L216 140c-5.913 3.198-11.91 5.529-18.312 7.563l-2.878.918C185.345 151.386 174.972 154 165 154v30l-5-2-2.22-.88c-2.656-1.454-4.05-2.604-5.78-5.12-1.017-5.982-.753-11.834-.5-17.875q.06-2.489.11-4.977c.087-4.051.225-8.099.39-12.148l1.993-.288c43.466-6.369 43.466-6.369 57.097-15.864 6.636-4.448 10.302-5.767 17.347-1.598" id="svg-layer-7" style="pointer-events: all;"/><path fill="#BDA25F" d="M245 183v2h-2l-.8 1.836c-1.264 2.28-2.322 3.248-4.387 4.789-11.724 9.838-17.248 26.01-22.885 39.825-7.337 17.955-18.485 32.997-30.865 47.8l-1.322 1.59c-2.659 3.12-5.466 5.7-8.741 8.16-3.017-2.759-5.56-5.56-7.875-8.937l-1.305-1.903c-1.228-3.234-.854-4.838.18-8.16 1.87-3.062 4.048-5.858 6.25-8.687q1.924-2.536 3.84-5.079l1.976-2.619c3.035-4.104 5.893-8.322 8.746-12.553 7.54-11.124 15.539-21.767 24.188-32.062l1.957-2.371C219.047 198.297 233.209 183 245 183" id="svg-layer-8" style="pointer-events: all;"/><path fill="#313836" d="M296 180c1.446 8.974 1.446 8.974-.25 12.875a91 91 0 0 1-3.277 3.785c-1.631 2.592-1.996 4.824-2.446 7.822-1.226 7.504-3.35 11.913-9.527 16.456a184 184 0 0 1-5.622 3.814c-3.021 2.008-5.873 4.232-8.753 6.435A2701 2701 0 0 1 261 235c-3.065-1.321-4.692-2.53-6.543-5.3l-1.314-1.964-1.33-2.048-1.366-2.014c-2.32-3.518-4.024-6.381-4.447-10.674 9.701-6.894 19.45-13.708 29.296-20.394a341 341 0 0 0 15.673-11.313C293 180 293 180 296 180" id="svg-layer-9" style="pointer-events: all;"/><path fill="#313734" d="M221 232c1.803 2.704 3.206 5.42 4.613 8.342 5.637 11.668 12.554 21.952 20.794 31.94 4.77 5.873 4.77 5.873 4.593 8.718a49 49 0 0 1-4.875 5.75l-1.527 1.602C231.39 302.052 231.39 302.052 223 306h-3c-.24-24.673.433-49.335 1-74" id="svg-layer-10" style="pointer-events: all;"/><path fill="#BDA25F" d="M220 232h1q.07 14.03.104 28.06.014 6.514.047 13.027.032 6.284.039 12.566.005 2.4.021 4.801a975 975 0 0 1 .016 6.71l.014 3.862C221 304 221 304 219 306c-7.4-4.948-14.421-10.023-20.75-16.312l-1.517-1.488c-5.163-5.285-5.163-5.285-5.733-9.2 1.51-2.438 2.934-4.316 4.813-6.437a645 645 0 0 0 3.101-3.75l1.583-1.922c5.873-7.389 10.536-15.728 15.003-24.016l1.026-1.902c1.547-2.942 2.885-5.686 3.474-8.973" id="svg-layer-11" style="pointer-events: all;"/><path fill="#C2AA6C" d="M85 148c3.25 0 3.25 0 7 1 .875 1.884 1.74 3.774 2.54 5.691 2.95 4.663 8.15 7.197 12.715 10.128 1.737 1.176 3.358 2.427 4.983 3.751 6.037 4.894 9.024 7.12 16.762 6.43 2.438 1.688 2.438 1.688 4 4l.313 2.438c.97 3.615 3.124 4.596 6.19 6.546L141 189v1c-4.543.379-4.543.379-6.812-1.5-2.512-1.722-3.301-1.63-6.25-1.5-3.938 0-3.938 0-5.813-1.125C121 184 121 184 120.188 181.063c-1.306-3.368-2.405-4.04-5.363-5.896-2.031-1.299-3.97-2.693-5.919-4.112l-2.183-1.575a797 797 0 0 1-4.446-3.234c-4.685-3.361-8.957-6.4-14.965-6.121C85 160 85 160 83.126 158.375c-1.488-3.142-.952-5.065-.125-8.375h2z" id="svg-layer-12" style="pointer-events: all;"/><path fill="#C4AD71" d="M100 194c1.75 1.188 1.75 1.188 3 3l.375 2.563L104 202c1.64.73 3.313 1.387 5 2q2.505 1.25 4.977 2.566l2.78 1.471 2.868 1.525q2.83 1.506 5.664 3.004l2.522 1.342C130 215 130 215 133 216c.688 2.063.688 2.063 1 4-8.583-2.526-15.967-6.589-23.736-10.969-.978-.53-1.956-1.062-2.963-1.61l-2.651-1.48c-3.266-1.16-5.302-.628-8.65.059-2.595-1.333-3.676-2.282-4.875-4.937-.158-2.609.454-3.895 1.875-6.063 2.549-1.274 4.174-1.276 7-1" id="svg-layer-13" style="pointer-events: all;"/><path fill="#D5C69C" d="M354.5 148.188c3.99 1.296 3.99 1.296 5.5 3.812-.187 3.625-.187 3.625-1 7-2.248 1.124-3.601 1.104-6.094 1.203-5.618.58-9.04 3.145-13.406 6.547-5.624 4.257-11.243 7.975-17.5 11.25.776-3.675 1.631-4.876 4.688-7.125l2.421-1.793L332 167q1.82-1.337 3.64-2.676 1.898-1.382 3.798-2.762l1.864-1.361C345.767 157 345.767 157 348 157l.313-3.375L349 150c3-2 3-2 5.5-1.812" id="svg-layer-14" style="pointer-events: all;"/><path fill="#F6F8EE" d="m350 195 2 6c-2.062 2.563-2.062 2.563-5 5l-3.18-.617c-5.152-.517-7.63 1.238-11.882 3.93-4.573 2.798-8.726 5.215-13.938 6.687l-1-2h2l.773-1.87c1.409-2.446 2.33-3.026 4.852-4.2l2.14-1.028 2.235-1.027a988 988 0 0 0 4.375-2.07l1.96-.907c2.632-1.42 3.577-2.658 4.603-5.46.35-.805.7-1.61 1.062-2.438 3.478-1.16 5.459-.708 9 0" id="svg-layer-15" style="pointer-events: all;"/><path fill="#F5F7ED" d="M128.125 175.063C131 176 131 176 133 179l.188 2.375c1.117 3.612 3.208 4.634 6.316 6.61L141 189v1c-4.543.379-4.543.379-6.812-1.5-2.512-1.722-3.301-1.63-6.25-1.5-3.938 0-3.938 0-5.938-1.187-1.393-2.525-1.486-3.969-1-6.813 2.228-3.257 3.127-4.017 7.125-3.937" id="svg-layer-16" style="pointer-events: all;"/><path fill="#F7F9F0" d="M100 194c1.875 1.063 1.875 1.063 3 3-.125 3.563-.125 3.563-1 7-3 2-3 2-5.5 1.938C94 205 94 205 92.063 202.75 91 200 91 200 91.687 197.25c2.117-3.629 4.319-3.64 8.313-3.25" id="svg-layer-17" style="pointer-events: all;"/><path fill="#C8B27A" d="M346 160c-1.508 4.182-4.5 6.079-8.062 8.438l-1.753 1.187A143 143 0 0 1 322 178c.372-2.626.792-3.797 2.715-5.676l2.223-1.637 2.445-1.804L332 167l2.68-2.008C341.49 160 341.49 160 346 160" id="svg-layer-18" style="pointer-events: all;"/><path fill="#CEBC8B" d="m341 203-1.75.75C337 205 337 205 335.27 206.84c-2.721 2.59-5.53 4.188-8.832 5.972l-3.442 1.895C320 216 320 216 317 215l2-1 .903-1.927c1.284-2.427 2.23-3.025 4.652-4.249l2.113-1.068 2.207-1.069 2.184-1.126 2.12-1.05 1.93-.954c2.309-.68 3.64-.317 5.891.443" id="svg-layer-19" style="pointer-events: all;"/><path fill="#F7F9F0" d="M224 163q3.438-.04 6.875-.062l3.867-.036C238 163 238 163 240 164c-.375 1.938-.375 1.938-1 4-2.709 1.354-5.01 1.065-8 1l-1-4-6-1z" id="svg-layer-20" style="pointer-events: all;"/><path fill="#BFA565" d="m331 168 2 2c-3.382 3.68-6.425 5.979-11 8 .373-2.726.792-3.808 2.848-5.703l2.214-1.547 2.223-1.578z" id="svg-layer-21" style="pointer-events: all;"/><path fill="#316179" d="M352 149c3.875.875 3.875.875 5 2 .04 1.666.043 3.334 0 5l-5 1c-.8-3.287-1.097-4.71 0-8" id="svg-layer-22" style="pointer-events: all;"/><path fill="#265D7F" d="M86 149c1.938.75 1.938.75 4 2 .875 2 .875 2 1 4l-2 2c-2.125-.375-2.125-.375-4-1-.625-2.375-.625-2.375-1-5z" id="svg-layer-23" style="pointer-events: all;"/><path fill="#F7F9F0" d="m83 150 2 1c.625 2.563.625 2.563 1 5l5 1-1 3c-2.312.25-2.312.25-5 0-1.875-1.625-1.875-1.625-3-4 .313-3.25.313-3.25 1-6" id="svg-layer-24" style="pointer-events: all;"/><path fill="#C8B37C" d="M329 210c-3.509 3.096-6.492 4.742-11 6l-1-2h2l.813-1.937c2.286-3.971 5.295-3.01 9.187-2.063" id="svg-layer-25" style="pointer-events: all;"/><path fill="#D2C295" d="M124 213c1.485.396 2.963.818 4.438 1.25l2.496.703C133 216 133 216 133.785 218.11L134 220a187 187 0 0 1-4.437-1.25l-2.497-.703C125 217 125 217 124.215 214.89z" id="svg-layer-26" style="pointer-events: all;"/><path fill="#416973" d="M100 197c.625 1.875.625 1.875 1 4l-2 2h-4l-1-5c2-1 2-1 6-1" id="svg-layer-27" style="pointer-events: all;"/><path fill="#3D6A7E" d="M343 197h5c1.245 2.49.777 3.41 0 6-2.437-.375-2.437-.375-5-1l-1-2z" id="svg-layer-28" style="pointer-events: all;"/><path fill="#2B6882" d="M314 178q2.514.428 5 1v4l-5 1a88 88 0 0 1-1-5z" id="svg-layer-29" style="pointer-events: all;"/><path fill="#226485" d="M126 178c2.063.438 2.063.438 4 1l-1 5-5-1c.875-3.875.875-3.875 2-5" id="svg-layer-30" style="pointer-events: all;"/><path fill="#F7F9F0" d="M352 148c2.606.352 4.608.765 6.875 2.125 1.801 3.002.81 5.577.125 8.875l-3-1 1-2c-1.4-5.6-1.4-5.6-5-8M85 148c3.375.313 3.375.313 7 1 2.152 3.228 2.2 4.284 2 8-3-1-3-1-4.687-4.062L88 150h-3z" id="svg-layer-31" style="pointer-events: all;"/><path fill="#F7F9F0" d="m350 149 3 1c-.812 2.938-.812 2.938-2 6l-3 1c.875-6.875.875-6.875 2-8" id="svg-layer-32" style="pointer-events: all;"/><path fill="#C3AB6E" d="m332 206-1 4h-6v-2c2.647-1.46 3.894-2 7-2" id="svg-layer-33" style="pointer-events: all;"/><path fill="#F3F3E7" d="M325 172c2 1 2 1 3 3l-6 3c.573-2.867.861-3.861 3-6" id="svg-layer-34" style="pointer-events: all;"/><path fill="#F7F9F0" d="m329 210-4 3c-2-1-2-1-3-3 2.667-1.333 4.167-.671 7 0" id="svg-layer-35" style="pointer-events: all;"/><path fill="#BDA25F" d="m86 149 4 2-5 2c0-3 0-3 1-4M352 149c1.938.375 1.938.375 4 1l1 2h-5z" id="svg-layer-36" style="pointer-events: all;"/><path fill="#F7F9F0" d="M345 158c2.063.438 2.063.438 4 1l-1 2-4-2z" id="svg-layer-37" style="pointer-events: all;"/><path fill="#C4AC71" d="m132 216 2 4-3-1z" id="svg-layer-38" style="pointer-events: all;"/></svg>